<?xml version="1.0" standalone="no"?>
<!DOCTYPE svg PUBLIC "-//W3C//DTD SVG 20010904//EN"
 "http://www.w3.org/TR/2001/REC-SVG-20010904/DTD/svg10.dtd">
<svg version="1.0" xmlns="http://www.w3.org/2000/svg"
 width="936.000000pt" height="936.000000pt" viewBox="0 0 936.000000 936.000000"
 preserveAspectRatio="xMidYMid meet">
<metadata>
Created by potrace 1.14, written by Peter Selinger 2001-2017
</metadata>
<g transform="translate(0.000000,936.000000) scale(0.100000,-0.100000)"
fill="#000000" stroke="none">
<path d="M3553 9345 c-91 -25 -290 -164 -429 -300 -11 -11 -76 -72 -144 -135
-224 -209 -314 -302 -600 -623 -19 -21 -46 -52 -60 -67 -14 -15 -39 -45 -56
-66 -18 -22 -42 -51 -55 -65 -13 -15 -40 -46 -59 -69 -19 -24 -42 -51 -50 -61
-8 -10 -25 -31 -37 -46 -12 -15 -31 -38 -42 -50 -12 -12 -21 -27 -21 -33 0 -5
-4 -10 -8 -10 -7 0 -59 -65 -87 -109 -5 -9 -13 -18 -16 -21 -16 -14 -251 -335
-303 -415 -14 -22 -31 -46 -37 -54 -12 -13 -124 -180 -144 -213 -5 -10 -22
-34 -36 -55 -24 -34 -99 -154 -140 -221 -9 -15 -48 -80 -88 -145 -39 -65 -71
-120 -71 -122 0 -9 -64 -110 -74 -117 -6 -4 -8 -8 -3 -8 4 0 -5 -19 -20 -42
-34 -55 -202 -386 -232 -458 -13 -30 -29 -68 -37 -85 -89 -198 -237 -639 -249
-745 -2 -14 -7 -50 -12 -80 -10 -68 -9 -420 1 -478 12 -66 14 -77 16 -77 1 0
4 -12 6 -26 4 -24 39 -99 75 -158 25 -44 66 -88 153 -166 95 -86 294 -146 481
-146 45 0 230 17 230 21 0 2 36 9 72 14 18 2 36 7 41 10 5 3 22 8 38 11 39 8
59 13 59 15 0 1 7 3 15 5 84 18 377 130 545 208 102 47 405 200 450 227 17 9
55 31 85 47 110 60 170 95 176 104 3 5 10 7 15 4 5 -4 9 -2 9 3 0 5 8 12 18
16 19 6 77 41 295 175 233 144 314 197 687 446 190 126 350 232 355 234 6 2
12 7 15 11 3 3 28 21 55 40 28 19 52 36 55 39 3 3 13 11 22 16 35 21 193 130
206 142 8 7 22 18 32 23 24 13 399 276 427 300 7 5 15 10 17 10 3 0 14 7 23
15 10 8 55 40 100 72 45 32 123 87 173 123 50 36 100 69 111 75 10 5 19 13 19
17 0 5 4 8 10 8 8 0 125 81 160 112 8 7 40 29 70 50 30 20 170 117 310 216
140 100 283 200 318 224 34 24 68 48 75 53 7 6 41 31 77 55 36 25 67 48 68 53
2 4 10 7 17 7 7 0 15 3 17 8 2 4 28 24 58 45 64 43 137 95 171 120 13 9 89 62
169 118 80 55 152 105 161 112 8 7 23 17 32 22 65 40 207 141 207 147 0 5 6 8
14 8 8 0 21 6 28 13 7 7 47 35 88 62 41 28 77 53 78 58 2 4 9 7 16 7 7 0 21 9
31 20 10 11 24 20 31 20 7 0 14 3 16 8 5 10 66 52 77 52 5 0 11 3 13 8 3 6
145 102 189 127 10 6 63 38 118 71 134 82 382 204 415 204 20 0 32 -20 35 -60
2 -35 -39 -242 -61 -310 -6 -19 -13 -42 -14 -50 -3 -20 -10 -41 -17 -60 -5
-12 -21 -68 -33 -112 -1 -5 -2 -9 -3 -10 -3 -6 -72 -204 -76 -218 -9 -31 -49
-135 -55 -140 -3 -3 -6 -12 -8 -20 -9 -48 -125 -314 -231 -532 -29 -59 -52
-110 -51 -114 1 -4 -2 -10 -7 -13 -5 -3 -25 -37 -44 -76 -19 -38 -37 -71 -41
-73 -5 -2 -8 -11 -8 -21 0 -9 -4 -21 -9 -27 -8 -8 -49 -81 -177 -314 -10 -19
-21 -37 -24 -40 -3 -3 -16 -24 -28 -48 -13 -24 -41 -71 -63 -105 -21 -34 -46
-75 -55 -92 -17 -31 -223 -353 -236 -370 -26 -31 -88 -127 -88 -135 0 -4 -4
-10 -8 -12 -4 -1 -23 -25 -42 -53 -45 -63 -45 -64 -73 -100 -13 -16 -45 -61
-72 -100 -27 -38 -53 -71 -57 -73 -4 -2 -8 -9 -8 -14 0 -6 -7 -18 -15 -27 -9
-9 -70 -88 -137 -176 -66 -88 -130 -172 -142 -186 -12 -15 -32 -41 -46 -59
-14 -17 -36 -45 -50 -60 -14 -16 -63 -76 -109 -134 -47 -58 -88 -106 -93 -106
-4 0 -8 -4 -8 -10 0 -6 -8 -18 -17 -28 -10 -10 -38 -42 -63 -72 -25 -29 -58
-68 -75 -86 -16 -18 -43 -49 -60 -69 -16 -20 -48 -56 -70 -80 -22 -23 -55 -60
-73 -81 -122 -141 -619 -648 -788 -804 -110 -102 -185 -170 -259 -235 -37 -33
-80 -71 -95 -85 -15 -14 -40 -36 -56 -49 -16 -14 -58 -50 -94 -80 -35 -31 -78
-67 -94 -81 -17 -14 -41 -35 -53 -47 -13 -13 -28 -23 -33 -23 -5 0 -15 -8 -22
-18 -7 -9 -29 -29 -50 -44 -20 -15 -42 -33 -50 -40 -7 -8 -44 -38 -83 -68 -38
-30 -74 -60 -80 -66 -5 -6 -17 -15 -26 -20 -9 -5 -36 -25 -60 -46 -58 -48
-194 -155 -244 -192 -22 -17 -49 -38 -60 -48 -11 -9 -49 -39 -85 -65 -36 -26
-72 -53 -80 -60 -8 -7 -33 -26 -55 -42 -22 -17 -45 -35 -52 -41 -7 -5 -16 -10
-22 -10 -5 0 -11 -4 -13 -9 -2 -7 -221 -169 -453 -335 -101 -73 -238 -166
-243 -166 -4 0 -19 -11 -34 -25 -15 -14 -30 -25 -33 -25 -8 0 -69 -44 -73 -52
-2 -5 -7 -8 -12 -8 -4 0 -36 -19 -71 -43 -35 -23 -114 -74 -174 -113 -61 -39
-156 -101 -213 -137 -56 -37 -105 -67 -108 -67 -3 0 -24 -13 -47 -29 -45 -30
-87 -56 -177 -105 -30 -16 -58 -34 -62 -40 -4 -6 -8 -7 -8 -3 0 5 -13 -1 -29
-12 -15 -11 -31 -18 -35 -14 -3 3 -6 1 -6 -5 0 -7 -4 -12 -9 -12 -5 0 -51 -20
-102 -43 -160 -75 -183 -84 -234 -102 -27 -9 -71 -19 -96 -22 -40 -5 -48 -2
-62 18 -16 22 -15 26 24 98 23 42 44 78 47 81 10 8 52 68 52 75 0 4 6 12 13
19 6 8 19 23 27 36 49 71 175 231 230 290 8 8 30 34 49 55 99 117 249 261 376
363 111 89 99 81 165 122 30 19 57 37 60 40 3 3 30 18 60 34 108 57 200 142
335 311 48 61 97 120 109 131 99 99 283 335 325 416 59 116 29 149 -99 105
-39 -13 -223 -107 -254 -130 -53 -38 -146 -95 -146 -89 0 4 -4 2 -8 -4 -6 -10
-46 -39 -147 -108 -66 -46 -314 -237 -351 -271 -6 -5 -30 -26 -54 -45 -24 -19
-48 -39 -54 -45 -6 -5 -29 -25 -51 -44 -221 -188 -514 -484 -656 -661 -85
-107 -229 -328 -229 -352 0 -3 -10 -27 -22 -54 -12 -27 -23 -53 -24 -59 -2 -5
-5 -20 -8 -33 -46 -183 -54 -334 -22 -417 22 -58 111 -151 154 -161 15 -4 32
-9 37 -13 34 -19 191 -21 255 -3 124 36 216 66 225 73 6 4 12 7 15 7 8 1 56
20 104 42 25 11 48 20 51 20 10 0 379 182 385 190 3 3 21 14 40 24 19 9 44 23
55 29 11 7 55 33 98 57 108 62 107 61 162 96 212 132 330 208 530 343 127 84
233 159 237 165 5 6 8 7 8 1 0 -6 3 -6 8 1 4 5 86 66 182 134 96 68 180 128
185 132 6 4 74 54 151 111 152 110 157 113 308 229 185 142 238 183 256 198 9
8 32 26 50 40 18 14 38 30 44 35 6 6 56 46 111 89 55 44 111 90 125 102 14 12
63 55 110 94 73 62 158 137 245 215 13 11 58 52 101 90 43 39 112 102 153 140
117 108 575 568 681 684 52 56 106 115 120 129 14 15 72 81 130 147 58 66 107
122 110 125 12 12 212 252 270 325 35 44 70 87 77 95 7 8 27 33 44 55 17 22
41 54 54 70 76 97 216 282 250 330 22 31 47 65 55 75 8 10 53 73 100 141 47
67 90 127 95 133 6 6 41 58 80 116 38 58 73 110 78 115 14 18 183 280 252 391
37 60 76 121 86 136 10 15 19 29 19 32 0 3 31 58 68 123 140 242 322 590 440
843 73 158 112 242 112 246 0 2 11 27 24 56 13 29 36 82 50 118 15 36 31 74
36 85 29 65 124 318 134 360 2 6 6 17 9 25 10 27 73 260 80 300 3 14 8 32 11
40 21 59 36 237 26 323 -3 32 -2 58 3 60 18 6 -45 118 -92 165 -25 26 -62 53
-81 61 -19 7 -42 16 -50 20 -13 6 -165 8 -165 2 0 -2 -7 -4 -15 -6 -132 -27
-273 -87 -470 -199 -25 -14 -58 -33 -75 -41 -16 -8 -48 -26 -70 -40 -22 -14
-48 -28 -57 -31 -10 -4 -18 -10 -18 -15 0 -5 -4 -9 -10 -9 -12 0 -233 -140
-242 -154 -4 -6 -8 -8 -8 -4 0 5 -220 -137 -360 -232 -142 -97 -326 -223 -403
-277 -54 -37 -106 -72 -117 -78 -11 -5 -20 -13 -20 -17 0 -5 -7 -8 -15 -8 -8
0 -15 -4 -15 -8 0 -4 -15 -16 -32 -27 -18 -10 -35 -21 -38 -24 -3 -3 -34 -26
-70 -51 -36 -24 -66 -48 -68 -52 -2 -4 -8 -8 -13 -8 -11 0 -113 -71 -117 -82
-2 -5 -10 -8 -17 -8 -7 0 -15 -3 -17 -7 -1 -5 -39 -33 -83 -63 -91 -62 -219
-153 -252 -178 -12 -9 -30 -23 -40 -29 -32 -22 -86 -60 -157 -110 -37 -26 -75
-52 -84 -58 -9 -5 -21 -15 -27 -20 -7 -6 -38 -28 -71 -50 -32 -22 -61 -43 -64
-46 -5 -6 -101 -73 -170 -120 -21 -14 -51 -35 -67 -47 -24 -18 -229 -165 -286
-204 -70 -49 -173 -123 -177 -129 -3 -3 -16 -12 -29 -19 -14 -7 -30 -17 -35
-22 -11 -9 -198 -143 -246 -176 -14 -9 -74 -52 -135 -95 -60 -42 -118 -83
-129 -90 -10 -6 -37 -26 -60 -42 -22 -17 -61 -44 -86 -60 -25 -17 -54 -38 -64
-47 -11 -10 -26 -18 -33 -18 -7 0 -13 -4 -13 -8 0 -5 -17 -20 -37 -33 -83 -54
-228 -153 -233 -159 -3 -3 -50 -34 -104 -70 -55 -36 -105 -69 -111 -75 -15
-14 -43 -31 -82 -51 -18 -9 -33 -20 -33 -24 0 -5 -9 -12 -20 -15 -11 -3 -26
-12 -32 -18 -24 -22 -94 -67 -105 -67 -6 0 -13 -4 -15 -8 -3 -7 -221 -149
-306 -199 -61 -36 -258 -152 -292 -171 -19 -11 -60 -33 -90 -49 -30 -15 -57
-30 -60 -34 -3 -3 -32 -19 -65 -35 -33 -16 -61 -32 -63 -36 -2 -5 -8 -8 -14
-8 -5 0 -56 -22 -111 -49 -315 -153 -590 -248 -797 -276 -191 -27 -286 -22
-375 19 -113 52 -177 167 -178 321 0 40 12 174 18 205 3 14 7 40 9 57 5 37 52
208 66 238 5 11 31 74 58 140 28 66 71 164 96 218 25 55 46 103 46 108 0 5 4
9 9 9 5 0 12 11 15 24 3 13 22 52 41 86 19 34 35 68 35 76 0 8 4 14 9 14 5 0
16 17 25 38 9 20 32 64 51 97 19 33 44 77 55 98 12 22 38 67 59 100 21 34 49
82 63 107 20 36 111 184 211 344 38 62 208 323 215 331 5 6 26 37 46 70 21 33
42 62 46 65 4 3 13 16 19 28 13 24 130 192 141 202 3 3 14 19 24 35 32 51 308
419 322 431 8 6 14 14 14 18 0 4 44 62 97 129 54 67 105 131 113 141 8 10 23
27 33 38 9 10 17 22 17 27 0 5 4 11 8 13 5 2 57 62 117 133 59 72 114 137 122
145 14 16 27 31 128 145 146 165 311 335 324 335 5 0 16 -6 23 -13 7 -7 24
-21 38 -30 43 -28 66 -6 134 128 34 66 77 144 95 173 46 71 61 133 46 185 -30
101 -139 140 -282 102z"/>
<path d="M6690 2296 c-115 -32 -314 -185 -397 -307 -35 -51 -76 -156 -69 -175
3 -7 2 -16 -3 -18 -17 -11 1 -136 19 -136 5 0 66 57 137 128 70 70 142 138
158 152 163 138 225 169 275 138 17 -11 22 -10 30 2 5 8 7 17 4 21 -2 4 -1 10
4 13 12 7 5 85 -13 133 -22 57 -63 71 -145 49z"/>
</g>
</svg>
